/* XPM */
static char * icon_xpm[] = {
"32 32 660 2",
"  	c None",
". 	c #BDBEBF",
"+ 	c #D1D2D3",
"@ 	c #C0C0C1",
"# 	c #B8B9BA",
"$ 	c #A1A3A4",
"% 	c #AAABAC",
"& 	c #9FA1A2",
"* 	c #707274",
"= 	c #D1D1D2",
"- 	c #D9DADA",
"; 	c #B8B8B8",
"> 	c #A1A2A2",
", 	c #AAAAAA",
"' 	c #B0B0B1",
") 	c #B0B1B1",
"! 	c #AAAAAB",
"~ 	c #A3A4A5",
"{ 	c #B2B3B4",
"] 	c #8F9193",
"^ 	c #686A6D",
"/ 	c #2E3134",
"( 	c #DCDCDD",
"_ 	c #B1B2B2",
": 	c #797A7B",
"< 	c #ADADAE",
"[ 	c #BCBCBD",
"} 	c #C3C3C4",
"| 	c #C6C6C6",
"1 	c #C6C7C6",
"2 	c #C5C6C6",
"3 	c #BCBCBC",
"4 	c #BABBBB",
"5 	c #B4B4B5",
"6 	c #B1B1B2",
"7 	c #9FA0A1",
"8 	c #727375",
"9 	c #3A3E42",
"0 	c #B3B4B5",
"a 	c #D1D1D1",
"b 	c #787979",
"c 	c #8D8E90",
"d 	c #A1A1A2",
"e 	c #B3B3B4",
"f 	c #C6C6C7",
"g 	c #C9CAC9",
"h 	c #CBCCCB",
"i 	c #CACACA",
"j 	c #C1C1C1",
"k 	c #BDBDBE",
"l 	c #B8B8B9",
"m 	c #B5B5B6",
"n 	c #98989C",
"o 	c #8F8F92",
"p 	c #919394",
"q 	c #5B5E63",
"r 	c #31363A",
"s 	c #B0B1B2",
"t 	c #C0C1C1",
"u 	c #77787A",
"v 	c #949697",
"w 	c #A2A1A3",
"x 	c #A8A8A9",
"y 	c #AFAFB1",
"z 	c #C6C7C7",
"A 	c #B0B3B5",
"B 	c #999DA2",
"C 	c #91959A",
"D 	c #90959A",
"E 	c #94989D",
"F 	c #A3A5A9",
"G 	c #B9BABC",
"H 	c #949597",
"I 	c #919294",
"J 	c #8E8F91",
"K 	c #8D9091",
"L 	c #727579",
"M 	c #33383E",
"N 	c #949596",
"O 	c #BEBFC0",
"P 	c #797B7D",
"Q 	c #939396",
"R 	c #9FA0A2",
"S 	c #A3A3A7",
"T 	c #A0A0A3",
"U 	c #656A70",
"V 	c #9AA0A6",
"W 	c #CCCED1",
"X 	c #F0F2F1",
"Y 	c #FBFCFB",
"Z 	c #F9F9F9",
"` 	c #EAEAEA",
" .	c #CED0D2",
"..	c #A7ABAF",
"+.	c #787E85",
"@.	c #8B8F92",
"#.	c #929495",
"$.	c #8E8F93",
"%.	c #8C8D91",
"&.	c #787679",
"*.	c #787A7E",
"=.	c #363C42",
"-.	c #CACBCC",
";.	c #747578",
">.	c #909294",
",.	c #9A9C9E",
"'.	c #A0A1A3",
").	c #7F8387",
"!.	c #747A82",
"~.	c #D9DADB",
"{.	c #CFCFD0",
"].	c #F4F4F5",
"^.	c #F7F7F7",
"/.	c #F7F8F8",
"(.	c #F4F4F4",
"_.	c #E9E9E9",
":.	c #E1E1E2",
"<.	c #CFCFD1",
"[.	c #D3D3D6",
"}.	c #8B9096",
"|.	c #696F76",
"1.	c #8B8E92",
"2.	c #6C3C3A",
"3.	c #6F0500",
"4.	c #694D4B",
"5.	c #62676C",
"6.	c #484E52",
"7.	c #B5B6B7",
"8.	c #707273",
"9.	c #8A8B8E",
"0.	c #939598",
"a.	c #9B9DA0",
"b.	c #75797F",
"c.	c #9A9FA2",
"d.	c #D5D6D9",
"e.	c #D6D6D8",
"f.	c #E0E1E3",
"g.	c #DEDEDF",
"h.	c #C3C5C5",
"i.	c #AFB0B0",
"j.	c #ACACAC",
"k.	c #AFB0B1",
"l.	c #D1D2D5",
"m.	c #CDCDCE",
"n.	c #C1C2C6",
"o.	c #BFC2C4",
"p.	c #8E7C7F",
"q.	c #981705",
"r.	c #CD3700",
"s.	c #A93700",
"t.	c #751200",
"u.	c #706263",
"v.	c #464C53",
"w.	c #A9ABAD",
"x.	c #7F8183",
"y.	c #8E9194",
"z.	c #949699",
"A.	c #7A7F84",
"B.	c #979BA1",
"C.	c #C9C9CC",
"D.	c #CACACE",
"E.	c #949495",
"F.	c #8C8C8C",
"G.	c #A7A7A7",
"H.	c #B9BAB9",
"I.	c #AFAFAF",
"J.	c #8A8A8A",
"K.	c #7F7F81",
"L.	c #96443B",
"M.	c #DD3100",
"N.	c #FE8941",
"O.	c #F47600",
"P.	c #C15300",
"Q.	c #832200",
"R.	c #7A2207",
"S.	c #696D73",
"T.	c #494F56",
"U.	c #9D9EA0",
"V.	c #6B6C70",
"W.	c #878A8E",
"X.	c #8E9295",
"Y.	c #8E9195",
"Z.	c #71777F",
"`.	c #B7B8BB",
" +	c #B9BBBE",
".+	c #B3B3B7",
"++	c #8A8A8B",
"@+	c #BAB9B9",
"#+	c #C9C9C9",
"$+	c #D8D8D8",
"%+	c #DFDFDF",
"&+	c #DBDBDB",
"*+	c #D1D4D4",
"=+	c #97726F",
"-+	c #B61800",
";+	c #FB834F",
">+	c #FFC990",
",+	c #F67B0B",
"'+	c #DA5F00",
")+	c #A43D00",
"!+	c #862600",
"~+	c #B73D00",
"{+	c #60413B",
"]+	c #585F66",
"^+	c #B1B2B4",
"/+	c #95979B",
"(+	c #8D9195",
"_+	c #898C91",
":+	c #686E74",
"<+	c #AAACB0",
"[+	c #AAADB0",
"}+	c #ABADB0",
"|+	c #7C7C7D",
"1+	c #BEBEBE",
"2+	c #D7D7D7",
"3+	c #F1F1F1",
"4+	c #F5F5F5",
"5+	c #F9FAFA",
"6+	c #D5CFCF",
"7+	c #A43528",
"8+	c #EB460E",
"9+	c #FFC294",
"0+	c #FC9C3E",
"a+	c #EA6800",
"b+	c #CD5700",
"c+	c #A13A00",
"d+	c #852200",
"e+	c #AE3E00",
"f+	c #963202",
"g+	c #472824",
"h+	c #7F7E81",
"i+	c #8B8F95",
"j+	c #727578",
"k+	c #A5A7A9",
"l+	c #A1A4A7",
"m+	c #A8ABAE",
"n+	c #A8AAAE",
"o+	c #959AA0",
"p+	c #9A9DA2",
"q+	c #A6AAAD",
"r+	c #6C6D6F",
"s+	c #B7B7B7",
"t+	c #EDEDED",
"u+	c #F6F6F6",
"v+	c #FBFBFB",
"w+	c #F5F7F7",
"x+	c #AF7A77",
"y+	c #C72100",
"z+	c #FE9364",
"A+	c #FFC07D",
"B+	c #F37200",
"C+	c #DA6000",
"D+	c #B84900",
"E+	c #8F2C00",
"F+	c #8D2500",
"G+	c #A83300",
"H+	c #642410",
"I+	c #382628",
"J+	c #514446",
"K+	c #8B8A8C",
"L+	c #848B90",
"M+	c #818486",
"N+	c #949698",
"O+	c #A1A3A8",
"P+	c #A3A6A9",
"Q+	c #9C9FA4",
"R+	c #A8ACB0",
"S+	c #BABBBE",
"T+	c #A5A7AA",
"U+	c #858585",
"V+	c #CBCBCB",
"W+	c #FCFCFC",
"X+	c #DDD6D6",
"Y+	c #9A2F22",
"Z+	c #E73800",
"`+	c #FFAD67",
" @	c #F98B21",
".@	c #E56500",
"+@	c #C75300",
"@@	c #9F3800",
"#@	c #852100",
"$@	c #A02E00",
"%@	c #8A2C05",
"&@	c #432522",
"*@	c #3F3234",
"=@	c #6D6668",
"-@	c #909295",
";@	c #9C9EA0",
">@	c #848A90",
",@	c #797C7E",
"'@	c #989B9D",
")@	c #9FA2A6",
"!@	c #9FA2A7",
"~@	c #94999E",
"{@	c #A9ABAE",
"]@	c #A9ABAF",
"^@	c #818386",
"/@	c #AEAEAE",
"(@	c #EEEEEE",
"_@	c #E4E2E3",
":@	c #761000",
"<@	c #D04A00",
"[@	c #F47800",
"}@	c #EC6D00",
"|@	c #D35B00",
"1@	c #AF4200",
"2@	c #8A2700",
"3@	c #912600",
"4@	c #A43200",
"5@	c #4E1C0D",
"6@	c #3C2C2E",
"7@	c #5D5153",
"8@	c #818387",
"9@	c #97989C",
"0@	c #96999C",
"a@	c #999B9E",
"b@	c #888D93",
"c@	c #7C8083",
"d@	c #9A9C9F",
"e@	c #A1A3A7",
"f@	c #A0A1A6",
"g@	c #92979D",
"h@	c #A4A7A9",
"i@	c #A5A6AB",
"j@	c #777879",
"k@	c #B9B9B9",
"l@	c #DBDADB",
"m@	c #F2F2F3",
"n@	c #BAA8A7",
"o@	c #7E1300",
"p@	c #B24100",
"q@	c #C65900",
"r@	c #B54800",
"s@	c #922F00",
"t@	c #872200",
"u@	c #A53100",
"v@	c #802D0C",
"w@	c #442A29",
"x@	c #2A2121",
"y@	c #797476",
"z@	c #989A9C",
"A@	c #90959B",
"B@	c #959799",
"C@	c #989A9D",
"D@	c #8A9197",
"E@	c #7D8084",
"F@	c #9C9FA2",
"G@	c #A1A4A8",
"H@	c #A1A2A6",
"I@	c #94999F",
"J@	c #A2A4A7",
"K@	c #757676",
"L@	c #B6B6B8",
"M@	c #D6D6D6",
"N@	c #E7E7E7",
"O@	c #ECEBEC",
"P@	c #D1CDCD",
"Q@	c #7A1300",
"R@	c #832100",
"S@	c #852300",
"T@	c #882200",
"U@	c #9B3002",
"V@	c #5C2D23",
"W@	c #523D3E",
"X@	c #736667",
"Y@	c #575657",
"Z@	c #96989B",
"`@	c #8E9499",
" #	c #979A9B",
".#	c #95979A",
"+#	c #8B9198",
"@#	c #7C8084",
"##	c #9EA0A2",
"$#	c #A0A2A6",
"%#	c #A1A3A6",
"&#	c #979AA0",
"*#	c #9FA1A3",
"=#	c #9FA1A4",
"-#	c #727374",
";#	c #ADADAD",
">#	c #CECDCE",
",#	c #DEDFDF",
"'#	c #E3E4E4",
")#	c #E6E7E7",
"!#	c #986F69",
"~#	c #A42600",
"{#	c #B63900",
"]#	c #A73300",
"^#	c #6A2918",
"/#	c #4F3536",
"(#	c #6D5A5B",
"_#	c #A49E9E",
":#	c #545555",
"<#	c #9B9EA0",
"[#	c #919396",
"}#	c #8E9398",
"|#	c #8E939A",
"1#	c #7D8184",
"2#	c #9EA0A3",
"3#	c #9CA0A5",
"4#	c #999C9E",
"5#	c #9C9EA1",
"6#	c #858689",
"7#	c #BFC0C0",
"8#	c #D3D3D5",
"9#	c #DBDBDC",
"0#	c #DBDCDC",
"a#	c #D5D6D7",
"b#	c #7E6868",
"c#	c #582B25",
"d#	c #4D3332",
"e#	c #634F4F",
"f#	c #978C8C",
"g#	c #C1C0C1",
"h#	c #9B9B9B",
"i#	c #5A585C",
"j#	c #919596",
"k#	c #8E9092",
"l#	c #92979C",
"m#	c #97999C",
"n#	c #949AA1",
"o#	c #7C8085",
"p#	c #9A9D9F",
"q#	c #A2A5A7",
"r#	c #A3A6AA",
"s#	c #919599",
"t#	c #97999B",
"u#	c #A7AAAD",
"v#	c #545455",
"w#	c #AFAFB0",
"x#	c #C4C4C5",
"y#	c #CFD0D1",
"z#	c #D2D4D4",
"A#	c #D3D4D4",
"B#	c #CDCCCD",
"C#	c #ABA4A5",
"D#	c #9F9696",
"E#	c #BEBCBD",
"F#	c #C7C8C9",
"G#	c #BDBEBE",
"H#	c #ABABAC",
"I#	c #646464",
"J#	c #747779",
"K#	c #97989B",
"L#	c #8A8B8C",
"M#	c #9C9FA6",
"N#	c #93989A",
"O#	c #929598",
"P#	c #8D8F91",
"Q#	c #A2A8AF",
"R#	c #94979B",
"S#	c #9EA1A4",
"T#	c #94989C",
"U#	c #7C7F82",
"V#	c #64676A",
"W#	c #606164",
"X#	c #7B7B7B",
"Y#	c #C6C7C8",
"Z#	c #C9C9CA",
"`#	c #C5C6C7",
" $	c #B9B9BA",
".$	c #AAABAB",
"+$	c #898A8A",
"@$	c #48494B",
"#$	c #696C71",
"$$	c #5C5F64",
"%$	c #797E82",
"&$	c #929698",
"*$	c #87898B",
"=$	c #B5BBC3",
"-$	c #898D92",
";$	c #909396",
">$	c #808488",
",$	c #777B80",
"'$	c #898E94",
")$	c #5A5C60",
"!$	c #626467",
"~$	c #6F7377",
"{$	c #515354",
"]$	c #7A7B7B",
"^$	c #B2B3B3",
"/$	c #B9BABB",
"($	c #AEAEB0",
"_$	c #A5A6A7",
":$	c #858586",
"<$	c #444546",
"[$	c #707275",
"}$	c #5E6065",
"|$	c #56575B",
"1$	c #757A81",
"2$	c #73747A",
"3$	c #6C6E73",
"4$	c #7B7D80",
"5$	c #8F959A",
"6$	c #60676E",
"7$	c #6A6F74",
"8$	c #75797C",
"9$	c #83868B",
"0$	c #80868D",
"a$	c #505356",
"b$	c #5E6163",
"c$	c #6B6F72",
"d$	c #5A5B5D",
"e$	c #4F5050",
"f$	c #898A8B",
"g$	c #A6A6A6",
"h$	c #A5A5A6",
"i$	c #A0A1A2",
"j$	c #8C8D8E",
"k$	c #59595A",
"l$	c #454747",
"m$	c #6F7274",
"n$	c #5B5E61",
"o$	c #585A5D",
"p$	c #595D60",
"q$	c #7D7F85",
"r$	c #6E7177",
"s$	c #6A6C72",
"t$	c #585D60",
"u$	c #979EA6",
"v$	c #6D747A",
"w$	c #6F7074",
"x$	c #717477",
"y$	c #787B80",
"z$	c #8C9196",
"A$	c #757C82",
"B$	c #4E4F52",
"C$	c #56595C",
"D$	c #5C5F63",
"E$	c #6A6D6F",
"F$	c #626364",
"G$	c #474749",
"H$	c #414243",
"I$	c #3F3F40",
"J$	c #3E3F40",
"K$	c #525354",
"L$	c #67686A",
"M$	c #63666A",
"N$	c #56585B",
"O$	c #56585C",
"P$	c #505257",
"Q$	c #818589",
"R$	c #717579",
"S$	c #6C6F75",
"T$	c #686B6F",
"U$	c #6C7177",
"V$	c #6B6F74",
"W$	c #6B6E71",
"X$	c #6F7376",
"Y$	c #75787D",
"Z$	c #8E9296",
"`$	c #7E848A",
" %	c #484A4D",
".%	c #525256",
"+%	c #5F6266",
"@%	c #8B8D8F",
"#%	c #929496",
"$%	c #959698",
"%%	c #97999A",
"&%	c #8B8D90",
"*%	c #6D6F72",
"=%	c #4F5355",
"-%	c #4C4E51",
";%	c #868A8E",
">%	c #73767A",
",%	c #6D7075",
"'%	c #6C6E71",
")%	c #535558",
"!%	c #9EA3AA",
"~%	c #889097",
"{%	c #64686B",
"]%	c #696D70",
"^%	c #6C7175",
"/%	c #707478",
"(%	c #82868A",
"_%	c #989EA5",
":%	c #5A5F61",
"<%	c #727476",
"[%	c #7C7E7F",
"}%	c #7E8082",
"|%	c #7F8182",
"1%	c #818284",
"2%	c #828385",
"3%	c #7F8083",
"4%	c #515459",
"5%	c #82868C",
"6%	c #84888D",
"7%	c #6F7275",
"8%	c #6D7074",
"9%	c #6B6E73",
"0%	c #545558",
"a%	c #939BA5",
"b%	c #62666A",
"c%	c #6A6A6F",
"d%	c #6D7073",
"e%	c #6C6F74",
"f%	c #888C90",
"g%	c #BABDBF",
"h%	c #8A8D90",
"i%	c #838587",
"j%	c #828486",
"k%	c #8A8B8F",
"l%	c #ACB0B4",
"m%	c #6F7276",
"n%	c #696C70",
"o%	c #6D6F74",
"p%	c #55575D",
"q%	c #898D93",
"r%	c #A5ADB6",
"s%	c #6C7075",
"t%	c #6C6E72",
"u%	c #6A6B71",
"v%	c #6A6D71",
"w%	c #777B7F",
"x%	c #94979A",
"y%	c #AEB0B2",
"z%	c #B7B9BC",
"A%	c #BABCBF",
"B%	c #B5B7BB",
"C%	c #989B9E",
"D%	c #8D9094",
"E%	c #686C70",
"F%	c #6A6D72",
"G%	c #575960",
"H%	c #9FA6AB",
"I%	c #BFC8CF",
"J%	c #909AA1",
"K%	c #616566",
"L%	c #6C6F70",
"M%	c #8D8F92",
"N%	c #939699",
"O%	c #969698",
"P%	c #969798",
"Q%	c #999CA0",
"R%	c #9A9B9F",
"S%	c #73777C",
"T%	c #5B5E64",
"U%	c #7F868A",
"V%	c #C6CCD3",
"W%	c #CBD3DC",
"X%	c #9AA2A7",
"Y%	c #92969A",
"Z%	c #8F9194",
"`%	c #969B9E",
" &	c #9B9C9F",
".&	c #9C9C9F",
"+&	c #9C9DA0",
"@&	c #9D9EA1",
"#&	c #A3A8AE",
"$&	c #CFD7DE",
"%&	c #F2F8FB",
"&&	c #D5DADE",
"*&	c #C4C7C9",
"=&	c #B8BBBC",
"-&	c #ACB1B2",
";&	c #ADB0B3",
">&	c #B7BABC",
",&	c #C5C9CE",
"'&	c #D3D9DE",
")&	c #F8FEFF",
"                                                                ",
"                        . + @ # $ % & *                         ",
"                    = - ; > , ' ) ! ~ { ] ^ /                   ",
"                ( _ : < [ } | 1 2 3 4 5 6 7 8 9                 ",
"            0 a b c d e f g h h i j k l m n o p q r             ",
"          s t u v w x y z A B C D E F G y H I J K L M           ",
"        N O P Q R S T U V W X Y Z `  ...+.@.#.$.%.&.*.=.        ",
"        -.;.>.,.'.).!.~.{.].^./.(._.:.<.[.}.|.1.2.3.4.5.6.      ",
"      7.8.9.0.a.b.c.d.e.f.g.h.i.j.k.l.m.n.o.p.q.r.s.t.u.v.      ",
"      w.x.y.z.A.B.n.C.D.E.F.G.; H.I.J.K.,.L.M.N.O.P.Q.R.S.T.    ",
"    U.V.W.X.Y.Z.`. +.+++@+#+$+%+%+&+*+=+-+;+>+,+'+)+!+~+{+]+    ",
"    ^+/+(+_+:+<+[+}+|+1+2+_.3+4+5+6+7+8+9+0+a+b+c+d+e+f+g+h+i+  ",
"  j+k+l+m+n+o+p+q+r+s+2+t+u+v+w+x+y+z+A+B+C+D+E+F+G+H+I+J+K+L+  ",
"  M+N+O+P+Q+R+S+T+U+V+_.u+W+X+Y+Z+`+ @.@+@@@#@$@%@&@*@=@-@;@>@  ",
"  ,@'@)@!@~@{@]@^@/@$+(@^._@:@<@[@}@|@1@2@3@4@5@6@7@8@9@0@a@b@  ",
"  c@d@e@f@g@h@i@j@k@l@t+m@n@o@p@q@r@s@t@u@v@w@x@y@z@A@B@0@C@D@  ",
"  E@F@G@H@I@J@F K@L@M@N@O@P@Q@R@S@T@$@U@V@W@X@Y@;@Z@`@ #0@.#+#  ",
"  @###$#%#&#*#=#-#;#>#,#'#)#!#~#{#]#^#/#(#_#;#:#<#[#}#a@/+H |#  ",
"  1#2#G@G@3#4#5#6#F.7#8#9#0#a#b#c#d#e#f#g#4 h#i#j#k#l#m#z.B@n#  ",
"  o#p#O+q#r#s#t#u#v#w#x#y#z#A#B#C#D#E#F#G#H#I#J#K#L#M#N#O#P#Q#  ",
"    R#)@S#)@T#U#V#W#X#k.7#Y#Z#Z#F#`#t  $.$+$@$#$$$%$&$z.O#*$=$  ",
"    -$;$>$,$'$)$!$~${$]$! ^$l /$# m ($_$:$<$[$}$|$1$2$3$4$5$    ",
"    6$7$j+8$9$0$a$b$c$d$e$f$> g$h$i$j$k$l$m$n$o$p$q$r$s$t$u$    ",
"      v$w$x$y$z$A$B$C$D$E$F$G$H$I$J$K$L$M$N$O$P$Q$R$S$T$U$      ",
"        V$W$X$Y$Z$`$ %.%+%@%#%$%%%m#&%*%=%-%q ;%>%,%'%)%!%      ",
"        ~%{%]%^%/%(%_%:%<%[%}%|%K.1%2%3%4%5%6%7%8%9%0%}.        ",
"          a%b%c%#$d%e%f%g%l+h%i%j%k%B l%l+m%#$n%o%p%q%          ",
"            r%s%t%u%v%w%x%a@y%z%A%B%r#C%D%T$E%F%G%H%            ",
"              I%J%K%L%M%N%O%P%$%O%K#Q%R%R%S%T%U%V%              ",
"                  W%X%Y%Z%`%<# &.&+&@&z.1.#&$&                  ",
"                      %&&&*&=&-&;&>&,&'&)&                      ",
"                                                                "};
